<svg width="36" height="36" viewBox="0 0 36 36" fill="none" xmlns="http://www.w3.org/2000/svg">
<g clip-path="url(#clip0_276_10)">
<path d="M34.8517 17.4801L1.24235 0.629246C1.10575 0.560942 0.949049 0.544871 0.800389 0.581032C0.635397 0.62182 0.49329 0.726324 0.405183 0.871663C0.317077 1.017 0.29015 1.19133 0.330299 1.35648L3.79369 15.5074C3.84592 15.7203 4.00262 15.8931 4.21155 15.9614L10.1459 17.9984L4.21557 20.0355C4.00664 20.1078 3.84994 20.2766 3.80173 20.4895L0.330299 34.6605C0.294138 34.8092 0.31021 34.9659 0.378514 35.0984C0.53521 35.4159 0.920924 35.5444 1.24235 35.3877L34.8517 18.6333C34.9763 18.573 35.0767 18.4685 35.141 18.348C35.2977 18.0266 35.1691 17.6409 34.8517 17.4801ZM4.29191 30.6346L6.31289 22.3739L18.1736 18.3038C18.266 18.2717 18.3424 18.1993 18.3745 18.1029C18.4307 17.9342 18.3424 17.7534 18.1736 17.6931L6.31289 13.627L4.29994 5.39844L29.5321 18.0507L4.29191 30.6346Z" fill="#456288" fill-opacity="0.5"/>
</g>
<defs>
<clipPath id="clip0_276_10">
<rect width="36" height="36" fill="white"/>
</clipPath>
</defs>
</svg>
