<svg width="40" height="38" viewBox="0 0 40 38" fill="none" xmlns="http://www.w3.org/2000/svg">
<path d="M5.00001 16C4.13334 16 3.41667 15.7167 2.85001 15.15C2.28334 14.5833 2.00001 13.8667 2.00001 13C2.00001 12.1333 2.28334 11.4167 2.85001 10.85C3.41667 10.2833 4.13334 10 5.00001 10C5.86667 10 6.58334 10.2833 7.15001 10.85C7.71667 11.4167 8.00001 12.1333 8.00001 13C8.00001 13.8667 7.71667 14.5833 7.15001 15.15C6.58334 15.7167 5.86667 16 5.00001 16ZM8.00001 34H24V24H20.5C18.1333 24 16.1253 23.1753 14.476 21.526C12.8267 19.8767 12.0013 17.868 12 15.5C12 13.7333 12.4753 12.158 13.426 10.774C14.3767 9.39 15.6013 8.36534 17.1 7.7C17.4667 5.53333 18.4753 3.70867 20.126 2.226C21.7767 0.743335 23.7347 0.00133513 26 1.79372e-06C28.2653 -0.00133154 30.224 0.740668 31.876 2.226C33.528 3.71134 34.536 5.536 34.9 7.7C36.4 8.36667 37.6253 9.392 38.576 10.776C39.5267 12.16 40.0013 13.7347 40 15.5C40 17.8667 39.1753 19.8753 37.526 21.526C35.8767 23.1767 33.868 24.0013 31.5 24H28V34H36C36.5667 34 37.042 34.192 37.426 34.576C37.81 34.96 38.0013 35.4347 38 36C37.9987 36.5653 37.8067 37.0407 37.424 37.426C37.0413 37.8113 36.5667 38.0027 36 38H4.00001C3.43334 38 2.95867 37.808 2.57601 37.424C2.19334 37.04 2.00134 36.5653 2.00001 36V28C1.63334 27.6333 1.20801 27.342 0.724005 27.126C0.240005 26.91 -0.00132784 26.5347 5.49451e-06 26V20C5.49451e-06 19.4333 0.192006 18.9587 0.576006 18.576C0.960006 18.1933 1.43467 18.0013 2.00001 18H8.00001C8.56667 18 9.04201 18.192 9.42601 18.576C9.81001 18.96 10.0013 19.4347 10 20V26C10 26.5333 9.75801 26.9087 9.27401 27.126C8.79001 27.3433 8.36534 27.6347 8.00001 28V34Z" fill="#FF86E1"/>
</svg>
