<svg width="28" height="34" viewBox="0 0 28 34" fill="none" xmlns="http://www.w3.org/2000/svg">
<path d="M28 20.4567C28.0026 18.9376 27.6356 17.4427 26.9333 16.1116C27.0235 15.9724 27.1004 15.8242 27.164 15.6669C27.325 15.2655 27.3825 14.8271 27.3307 14.3953C27.2789 13.9636 27.1197 13.5535 26.8687 13.2057C26.6178 12.8579 26.284 12.5846 25.9003 12.4129C25.5167 12.2412 25.0966 12.1771 24.6819 12.2269C24.8638 11.8447 25.0082 11.4459 25.115 11.0306L25.9099 7.95289C26.3427 6.51932 26.254 4.96988 25.6606 3.60015C25.0673 2.23041 24.0109 1.13624 22.6929 0.526355C21.375 -0.0835288 19.8877 -0.166441 18.5149 0.293436C17.142 0.753312 15.9797 1.72379 15.2495 3.01974C14.5808 2.05914 13.6054 1.37852 12.4985 1.10014C11.3915 0.821762 10.2256 0.963881 9.21016 1.50096C8.19473 2.03805 7.39635 2.93489 6.95844 4.03037C6.52053 5.12586 6.4718 6.34818 6.82101 7.47774H4.34C0.0537429 7.47774 -1.62914 13.2709 1.93697 15.7482L4.03786 17.2086L2.57265 23.1992C2.38948 23.9221 2.36945 24.6794 2.51412 25.4117C2.65879 26.1441 2.96423 26.8315 3.40651 27.4202C3.98443 28.1966 4.77303 28.7738 5.66985 29.077V32.8714C5.66985 33.1707 5.78394 33.4578 5.98703 33.6694C6.19012 33.8811 6.46557 34 6.75278 34H26.917C27.2043 34 27.4797 33.8811 27.6828 33.6694C27.8859 33.4578 28 33.1707 28 32.8714V20.4567ZM12.8389 29.3163H15.7845C16.4118 29.3164 17.014 29.0598 17.4616 28.6018C17.9093 28.1437 18.1664 27.5209 18.1778 26.8672C18.1778 26.5328 18.1144 26.2016 17.9913 25.8928C17.8681 25.584 17.6877 25.3036 17.4603 25.0676C17.2329 24.8317 16.963 24.6448 16.6661 24.5179C16.3692 24.3909 16.0512 24.3264 15.7303 24.3278H12.8389V21.214C12.8389 21.0283 12.7949 20.8454 12.7109 20.6816C12.6268 20.5178 12.5052 20.3781 12.357 20.275L3.13794 13.8702C1.35543 12.631 2.19687 9.73496 4.34 9.73496H7.41337L7.67328 10.7394C7.92106 11.7003 8.42478 12.5685 9.12619 13.2436C9.82759 13.9187 10.698 14.373 11.6368 14.5541C12.2472 14.6654 12.8731 14.6443 13.4754 14.4921C14.0776 14.3398 14.6432 14.0597 15.1369 13.6693C15.1968 13.6798 15.2582 13.6851 15.321 13.6851H19.3365C19.7516 13.6858 20.1559 13.725 20.5494 13.8025L17.8312 14.8927C17.3117 15.103 16.879 15.4957 16.6076 16.0029C16.3361 16.5102 16.2431 17.1003 16.3445 17.6714C16.4459 18.2425 16.7353 18.7589 17.1629 19.1313C17.5905 19.5038 18.1294 19.7091 18.6867 19.7118C18.9835 19.7118 19.2769 19.6543 19.5531 19.5425L25.0966 17.3192C25.5677 18.2559 25.8341 19.3247 25.8341 20.4567V31.7428H12.8389V29.3163ZM16.7429 11.4279C16.784 11.3165 16.8219 11.2036 16.8566 11.0893C17.1403 10.14 17.1594 9.12634 16.9118 8.16619L16.4266 6.33672L16.6866 5.32775L16.6931 5.30066C16.7985 4.78943 17.0026 4.30586 17.2928 3.87932C17.5831 3.45277 17.9535 3.09213 18.3815 2.8193C18.8096 2.54646 19.2863 2.36711 19.7829 2.29214C20.2795 2.21717 20.7855 2.24813 21.2702 2.38315C21.755 2.51818 22.2083 2.75444 22.6028 3.07761C22.9973 3.40078 23.3246 3.80411 23.565 4.26312C23.8053 4.72214 23.9537 5.22727 24.001 5.74785C24.0484 6.26843 23.9937 6.79361 23.8404 7.29152L23.8328 7.31635L23.0239 10.4482C22.8808 11.0011 22.6302 11.5174 22.2875 11.9651C21.3412 11.6088 20.3426 11.427 19.3365 11.4279H16.7429Z" fill="#FF86E1"/>
</svg>
