<svg width="30" height="38" viewBox="0 0 30 38" fill="none" xmlns="http://www.w3.org/2000/svg">
<path d="M15 9.049C18.9782 9.049 22.7936 10.5741 25.6066 13.2888C28.4196 16.0035 30 19.6854 30 23.5245C30 27.3636 28.4196 31.0455 25.6066 33.7602C22.7936 36.4749 18.9782 38 15 38C11.0218 38 7.20644 36.4749 4.3934 33.7602C1.58035 31.0455 0 27.3636 0 23.5245C0 19.6854 1.58035 16.0035 4.3934 13.2888C7.20644 10.5741 11.0218 9.049 15 9.049ZM15 15.382L12.5213 20.2313L6.975 21.0094L10.9875 24.7821L10.0406 30.1127L15 27.5957L19.9594 30.1109L19.0125 24.7821L23.025 21.0076L17.4787 20.2295L15 15.382ZM16.875 0L26.25 0.00180952V5.43012L23.6944 7.48926C21.5741 6.41466 19.2584 5.74615 16.875 5.52059V0ZM13.125 0V5.51878C10.7422 5.74457 8.42717 6.41307 6.3075 7.48745L3.75 5.43012V0.00180952L13.125 0Z" fill="#FF86E1"/>
</svg>
