<svg width="32" height="44" viewBox="0 0 32 44" fill="none" xmlns="http://www.w3.org/2000/svg">
<path d="M0 40.7C0 41.5752 0.316071 42.4146 0.87868 43.0335C1.44129 43.6523 2.20435 44 3 44H6V0H3C2.20435 0 1.44129 0.347678 0.87868 0.966548C0.316071 1.58542 0 2.42479 0 3.3V40.7ZM8 0V44H28C29.0609 44 30.0783 43.5364 30.8284 42.7113C31.5786 41.8861 32 40.767 32 39.6V4.4C32 3.23305 31.5786 2.11389 30.8284 1.28873C30.0783 0.46357 29.0609 0 28 0L8 0ZM22 17.6H12V15.4H22V17.6ZM28 13.2H12V11H28V13.2Z" fill="#FF86E1"/>
</svg>
