<svg width="41" height="42" viewBox="0 0 41 42" fill="none" xmlns="http://www.w3.org/2000/svg">
<path d="M37.3479 21.133V21.1663C37.3476 21.4584 37.2188 21.7391 36.9883 21.9495C36.7579 22.1599 36.4438 22.2837 36.1119 22.295C36.0595 22.2867 36.0061 22.2738 35.9567 22.2565L35.9626 22.2583C35.4596 21.5676 34.77 20.9972 33.9553 20.5978C33.1406 20.1984 32.2261 19.9825 31.2935 19.9693H31.2895C29.6884 20.0297 28.1801 20.6468 27.0963 21.6848C26.0124 22.7227 25.4418 24.0967 25.5097 25.5045V25.494V36.4875C25.445 37.8892 26.0145 39.2563 27.0937 40.2895C28.1729 41.3227 29.6737 41.9377 31.2676 42H31.5681C31.9542 42 32.3224 41.923 32.6508 41.7882L32.6349 41.7935V41.804C32.9666 41.6733 33.2943 41.5327 33.6181 41.3823C34.7368 40.8311 35.7491 40.1277 36.6174 39.298L36.6254 39.291C38.142 37.8049 39.1946 35.9985 39.6805 34.048L39.6964 33.971C39.7183 33.887 39.7501 33.7925 39.77 33.7085C40.5522 30.4238 41 26.6473 41 22.7815C41 21.5705 40.9562 20.3695 40.8686 19.1783L40.8786 19.341C40.7973 14.312 38.6828 9.47261 34.9138 5.68932L34.9376 5.71382C34.9376 5.70332 34.9257 5.70333 34.9157 5.69457C34.1247 4.93583 33.2625 4.23687 32.3383 3.60508L32.2906 3.57358C31.3787 2.94019 30.3988 2.38633 29.3649 1.91983L29.2614 1.87608C26.5658 0.635345 23.5667 -0.00859386 20.5241 8.66104e-05H20.4923C17.4164 -0.0041247 14.3862 0.655045 11.6674 1.91983L11.7709 1.87608C10.6145 2.40808 9.62339 2.97158 8.69593 3.60333L8.7417 3.57358C7.77045 4.23158 6.91065 4.92633 6.12052 5.68057L6.10658 5.69283L6.08469 5.71208C2.30805 9.4684 0.191905 14.2927 0.121843 19.306V19.32C-0.225731 24.2537 0.171128 29.206 1.30207 34.048L1.23241 33.6875C1.2563 33.7943 1.28217 33.8835 1.31202 33.9693L1.30605 33.95C1.78664 35.9326 2.84958 37.7698 4.38898 39.2788L4.37903 39.2683C5.23684 40.089 6.22799 40.7838 7.32662 41.3315L7.38633 41.3595C7.657 41.4995 7.97943 41.6413 8.31379 41.7638L8.36952 41.7812V41.7708C8.68199 41.9002 9.0482 41.9755 9.43432 41.9772H9.72291C11.3201 41.9145 12.824 41.298 13.9053 40.2625C14.9867 39.2271 15.5575 37.8571 15.4927 36.4525V36.463V25.4888C15.558 24.0845 14.9876 22.7147 13.9065 21.6795C12.8254 20.6443 11.3217 20.0281 9.7249 19.9658H9.71295C8.78533 19.9769 7.87531 20.1901 7.06431 20.5862C6.25331 20.9823 5.56662 21.549 5.06567 22.2355L5.05174 22.2548C4.998 22.2548 4.94427 22.2915 4.89252 22.2915C4.56022 22.2807 4.24563 22.157 4.0148 21.9466C3.78397 21.7361 3.65486 21.4552 3.65457 21.1628V21.1278V21.1295C3.65457 21.1015 3.68642 21.0823 3.68642 21.0648C3.70831 20.559 3.74015 20.0428 3.772 19.5353C3.86156 18.0005 4.10835 16.5586 4.50243 15.1691L4.46461 15.3248C5.0589 13.0246 6.22074 10.8673 7.86797 9.00557L7.83812 9.04232C8.40919 8.3944 9.04387 7.79184 9.73485 7.24157C9.90402 7.10157 10.0772 6.97907 10.2463 6.84782C11.37 6.00524 12.6171 5.29895 13.9542 4.74783L14.0557 4.71108C16.0811 3.88492 18.2874 3.45788 20.5201 3.45983H20.5241C22.8726 3.45983 25.0997 3.92008 27.094 4.74258L26.9984 4.70758C28.3812 5.26887 29.6702 5.99365 30.8297 6.86182L30.8078 6.84432C30.977 6.97557 31.1502 7.10682 31.3094 7.23807C32.0004 7.78834 32.635 8.3909 33.2061 9.03882C34.8134 10.8608 35.9515 12.9679 36.5418 15.2146L36.5657 15.3231C36.9259 16.5586 37.1767 17.9988 37.2663 19.4775L37.2682 19.5335V19.6455C37.2682 20.1449 37.3027 20.6366 37.3717 21.1208L37.3658 21.063C37.3439 21.0735 37.3439 21.091 37.3439 21.1278L37.3479 21.133Z" fill="#FF86E1"/>
</svg>
