<svg width="48" height="36" viewBox="0 0 48 36" fill="none" xmlns="http://www.w3.org/2000/svg">
<path d="M36 7C36 6.0111 36.2932 5.0444 36.8427 4.22215C37.3921 3.39991 38.173 2.75904 39.0866 2.3806C40.0002 2.00217 41.0055 1.90315 41.9755 2.09608C42.9454 2.289 43.8363 2.76521 44.5355 3.46447C45.2348 4.16373 45.711 5.05465 45.9039 6.02455C46.0969 6.99446 45.9978 7.99979 45.6194 8.91342C45.241 9.82705 44.6001 10.6079 43.7779 11.1573C42.9556 11.7068 41.9889 12 41 12H2M33 29C33 29.9889 33.2932 30.9556 33.8427 31.7779C34.3921 32.6001 35.173 33.241 36.0866 33.6194C37.0002 33.9978 38.0055 34.0969 38.9755 33.9039C39.9454 33.711 40.8363 33.2348 41.5355 32.5355C42.2348 31.8363 42.711 30.9454 42.9039 29.9755C43.0969 29.0055 42.9978 28.0002 42.6194 27.0866C42.241 26.173 41.6001 25.3921 40.7779 24.8427C39.9556 24.2932 38.9889 24 38 24H28M2 18H35" stroke="#FF86E1" stroke-width="3" stroke-linecap="round" stroke-linejoin="round"/>
</svg>
