<svg width="43" height="36" viewBox="0 0 43 36" fill="none" xmlns="http://www.w3.org/2000/svg">
<path d="M21.5 0C24.1517 0 26.2778 2.0025 26.2778 4.5C26.2778 6.9975 24.1517 9 21.5 9C18.8483 9 16.7222 6.9975 16.7222 4.5C16.7222 2.0025 18.8722 0 21.5 0ZM43 27V22.5C37.6489 22.5 33.0622 20.34 29.6222 16.47L26.4211 12.87C25.9767 12.3626 25.4184 11.9541 24.7865 11.674C24.1545 11.3939 23.4645 11.2491 22.7661 11.25H20.3056C18.8483 11.25 17.5106 11.835 16.6028 12.87L13.4017 16.47C9.93778 20.34 5.35111 22.5 0 22.5V27C6.61722 27 12.3983 24.3675 16.7222 19.6875V24.75L7.45333 28.2375C5.85278 28.845 4.77778 30.375 4.77778 31.9725C4.77778 34.2 6.68889 36 9.05389 36H14.3333V34.875C14.3333 33.3832 14.9625 31.9524 16.0826 30.8975C17.2026 29.8426 18.7216 29.25 20.3056 29.25H27.4722C28.1411 29.25 28.6667 29.745 28.6667 30.375C28.6667 31.005 28.1411 31.5 27.4722 31.5H20.3056C18.3228 31.5 16.7222 33.0075 16.7222 34.875V36H33.9461C36.3111 36 38.2222 34.2 38.2222 31.9725C38.2222 30.375 37.1472 28.845 35.5467 28.2375L26.2778 24.75V19.6875C30.6017 24.3675 36.3828 27 43 27Z" fill="#FF86E1"/>
</svg>
