<svg width="34" height="36" viewBox="0 0 34 36" fill="none" xmlns="http://www.w3.org/2000/svg">
<path d="M32.2553 12.6752L21.9574 1.77825L22.6809 1.01276C23.3333 0.322322 24.1418 -0.0150922 25.1064 0.000517676C26.0709 0.0161276 26.8794 0.368552 27.5319 1.05779L33.0213 6.86648C33.6738 7.55692 34 8.40526 34 9.4115C34 10.4177 33.6738 11.2655 33.0213 11.9547L32.2553 12.6752ZM11.2766 34.9643C10.6241 35.6548 9.82298 36 8.87319 36C7.9234 36 7.1217 35.6548 6.46808 34.9643L0.978723 29.1556C0.326241 28.4652 0 27.6175 0 26.6124C0 25.6074 0.326241 24.7591 0.978723 24.0674L1.65957 23.347L11.9574 34.2439L11.2766 34.9643ZM17.4468 33.7035C17.1064 34.0638 16.7092 34.2439 16.2553 34.2439C15.8014 34.2439 15.4043 34.0638 15.0638 33.7035L2.17021 20.0599C1.82979 19.6996 1.65957 19.2794 1.65957 18.7991C1.65957 18.3188 1.82979 17.8985 2.17021 17.5383L4.59574 14.9266C4.93617 14.5664 5.34071 14.3863 5.80936 14.3863C6.27801 14.3863 6.68199 14.5664 7.02128 14.9266L9.70213 17.7634L16.766 10.2887L14.0851 7.45185C13.7447 7.09163 13.5745 6.67136 13.5745 6.19105C13.5745 5.71075 13.7447 5.29048 14.0851 4.93025L16.5106 2.31859C16.8511 1.95836 17.2556 1.77825 17.7243 1.77825C18.1929 1.77825 18.5969 1.95836 18.9362 2.31859L31.8298 15.9623C32.1702 16.3225 32.3404 16.7506 32.3404 17.2465C32.3404 17.7424 32.1702 18.1699 31.8298 18.5289L29.3617 21.0955C29.0213 21.4558 28.6241 21.6359 28.1702 21.6359C27.7163 21.6359 27.3191 21.4558 26.9787 21.0955L24.2979 18.2587L17.234 25.7335L19.9149 28.5703C20.2553 28.9305 20.4255 29.358 20.4255 29.8527C20.4255 30.3474 20.2553 30.7755 19.9149 31.1369L17.4468 33.7035Z" fill="#FF86E1"/>
</svg>
