<svg width="43" height="41" viewBox="0 0 43 41" fill="none" xmlns="http://www.w3.org/2000/svg">
<path d="M33.7715 0C35.5059 0 37.0528 1.76156 37.0528 4.12781C37.0528 6.5025 35.5059 8.25562 33.7715 8.25562C32.0372 8.25562 30.4903 6.5025 30.4903 4.12781C30.4903 1.76156 32.0372 0 33.7715 0ZM21.3122 0C23.0372 0 24.5934 1.76156 24.5934 4.12781C24.5934 6.5025 23.0372 8.25562 21.3122 8.25562C19.5778 8.25562 18.0215 6.5025 18.0215 4.12781C18.0215 1.76156 19.5778 0 21.3122 0ZM8.84341 0C10.5778 0 12.1247 1.76156 12.1247 4.12781C12.1247 6.5025 10.5778 8.25562 8.84341 8.25562C7.10903 8.25562 5.55372 6.5025 5.55372 4.12781C5.55372 1.76156 7.10903 0 8.84341 0ZM21.3122 10.2244C27.3122 10.4119 32.3747 10.4119 38.4497 10.6181C41.3465 12.2869 42.6872 20.8369 42.6028 23.8088L40.9528 25.4681C40.2309 21.4556 39.3215 16.1025 37.8122 14.9119V23.1244L38.1965 40.3463H36.1153L34.5497 23.0306H32.8622L31.2965 40.3463H29.2059L29.5997 23.1244L28.8497 14.8275H26.1028L25.4278 23.0963L25.8215 40.3181H23.7309L22.1559 23.0025H20.4684L18.8934 40.3181H16.8122L17.2059 23.0963L16.5215 14.8275H13.7747L13.0247 23.1244L13.4184 40.3463H11.3278L9.76216 23.0306H8.07466L6.49122 40.3463H4.40997L4.80372 23.1244V14.9119C3.28497 16.1025 2.37559 21.4556 1.65372 25.4681L0.00371981 23.8088C-0.0806552 20.8369 1.26935 12.2869 4.15685 10.6181C10.2497 10.4119 15.3122 10.4119 21.3122 10.2244Z" fill="#FF86E1"/>
</svg>
